PathFileType	4	(X/Y/Z)	OpenSim_Sub09_EMGBaseline_Magnet.trc
DataRate	CameraRate	NumFrames	NumMarkers	Units	OrigDataRate	OrigDataStartFrame	OrigNumFrames
100	100	16	8	m	100	3651	7301
Frame#	Time	torso_imu_offset_imu	pelvis_imu_offset_imu	tibia_r_imu_offset_imu	femur_r_imu_offset_imu	tibia_l_imu_offset_imu	femur_l_imu_offset_imu	toes_r_imu_offset_imu	toes_l_imu_offset_imu
				X1	Y1	Z1	X2	Y2	Z2	X3	Y3	Z3	X4	Y4	Z4	X5	Y5	Z5	X6	Y6	Z6	X7	Y7	Z7	X8		Y8	Z8	

3651	36.50000000	-0.92089800	-0.17309600	-0.00756800	-0.69189500	0.19506800	-0.57739300	-0.10131800	-0.85327100	-0.04150400	-0.76367200	-0.36767600	0.01782200	-0.66284200	0.39672900	0.20459000	-0.75756800	0.11987300	0.28784200	-0.66992200	-0.38916000	0.15600600	-0.68359400	-0.12085000	-0.39038100
3652	36.51000000	-0.91626000	-0.17944300	-0.01611300	-0.69873000	0.20336900	-0.57299800	-0.10131800	-0.84936500	-0.02368200	-0.76611300	-0.35302700	0.00366200	-0.66308600	0.40332000	0.20190400	-0.75341800	0.12646500	0.29663100	-0.66113300	-0.40136700	0.18139600	-0.68359400	-0.12524400	-0.39282200
3653	36.52000000	-0.92065400	-0.17944300	-0.01831100	-0.69653300	0.20141600	-0.57299800	-0.08691400	-0.84936500	-0.00805700	-0.77294900	-0.33447300	0.00293000	-0.65210000	0.40991200	0.19921900	-0.75146500	0.13085900	0.29443400	-0.65063500	-0.41357400	0.19409200	-0.68603500	-0.11865200	-0.39062500
3654	36.53000000	-0.91845700	-0.17749000	-0.01611300	-0.69433600	0.20556600	-0.57543900	-0.07861300	-0.84716800	-0.00146500	-0.77978500	-0.32006800	-0.01147500	-0.65210000	0.41210900	0.19921900	-0.75146500	0.13525400	0.29663100	-0.64819300	-0.42578100	0.17968800	-0.69018600	-0.12524400	-0.38598600
3655	36.54000000	-0.90991200	-0.17724600	-0.01391600	-0.69238300	0.21191400	-0.57348600	-0.07446300	-0.84716800	0.00756800	-0.79028300	-0.31591800	-0.00927700	-0.64135700	0.42309600	0.19848600	-0.74511700	0.14404300	0.29199200	-0.64990200	-0.43383800	0.16723600	-0.69043000	-0.12085000	-0.38818400
3656	36.55000000	-0.91406200	-0.18164100	-0.01171900	-0.68823200	0.21826200	-0.58056600	-0.06811500	-0.85131800	0.00317400	-0.79492200	-0.30346700	-0.01660200	-0.64794900	0.42529300	0.20068400	-0.74316400	0.15258800	0.30078100	-0.65380900	-0.43994100	0.15283200	-0.68798800	-0.12304700	-0.39038100
3657	36.56000000	-0.90991200	-0.18164100	-0.01806600	-0.69482400	0.22241200	-0.57617200	-0.06811500	-0.84497100	-0.00610400	-0.79956100	-0.28491200	-0.01733400	-0.64599600	0.43188500	0.20019500	-0.74121100	0.15918000	0.29858400	-0.65185500	-0.43774400	0.13818400	-0.68579100	-0.12304700	-0.39502000
3658	36.57000000	-0.91186500	-0.18579100	-0.01586900	-0.69311500	0.22876000	-0.57177700	-0.07006800	-0.84912100	-0.02148400	-0.80615200	-0.27246100	-0.02246100	-0.64379900	0.42968800	0.21167000	-0.73925800	0.16357400	0.29614300	-0.65600600	-0.43774400	0.13208000	-0.69238300	-0.12744100	-0.39038100
3659	36.58000000	-0.91406200	-0.18164100	-0.01831100	-0.69531200	0.23486300	-0.57421900	-0.08056600	-0.84716800	-0.03491200	-0.81298800	-0.25805700	-0.02758800	-0.63501000	0.43627900	0.21777300	-0.73925800	0.16357400	0.31201200	-0.65795900	-0.43994100	0.12158200	-0.68579100	-0.12524400	-0.38598600
3660	36.59000000	-0.91406200	-0.18383800	-0.01586900	-0.69335900	0.23706100	-0.56958000	-0.09301800	-0.84716800	-0.04394500	-0.81323200	-0.24975600	-0.02563500	-0.64379900	0.43627900	0.22460900	-0.73950200	0.16992200	0.31201200	-0.65820300	-0.43774400	0.11523400	-0.69458000	-0.12963900	-0.38378900
3661	36.60000000	-0.91406200	-0.18798800	-0.01367200	-0.68896500	0.23925800	-0.56982400	-0.10961900	-0.84912100	-0.05297900	-0.82397500	-0.23535200	-0.02392600	-0.63696300	0.43408200	0.22924800	-0.73291000	0.17016600	0.31201200	-0.67089800	-0.42358400	0.09423800	-0.69238300	-0.12744100	-0.38818400
3662	36.61000000	-0.91186500	-0.18994100	-0.01342800	-0.68920900	0.24755900	-0.57006800	-0.12841800	-0.84912100	-0.06176800	-0.82226600	-0.22290000	-0.02661100	-0.63720700	0.43627900	0.22900400	-0.73754900	0.18310500	0.31860400	-0.67504900	-0.42138700	0.06713900	-0.69238300	-0.12963900	-0.38378900
3663	36.62000000	-0.91821300	-0.18798800	-0.01147500	-0.68750000	0.25610400	-0.57275400	-0.14770500	-0.83886700	-0.05542000	-0.82885700	-0.21679700	-0.02221700	-0.63525400	0.44506800	0.22631800	-0.73339800	0.18750000	0.31176800	-0.68383800	-0.40527300	0.04589800	-0.69458000	-0.12963900	-0.39282200
3664	36.63000000	-0.91186500	-0.18994100	-0.00683600	-0.68335000	0.26245100	-0.57519500	-0.17065400	-0.83667000	-0.06469700	-0.83544900	-0.20239300	-0.02978500	-0.62622100	0.44726600	0.22607400	-0.72924800	0.19189500	0.31616200	-0.68798800	-0.40112300	0.02075200	-0.69653300	-0.13623000	-0.38818400
3665	36.64000000	-0.90966800	-0.18579100	-0.01367200	-0.68115200	0.26245100	-0.57983400	-0.19799800	-0.83056600	-0.06250000	-0.83374000	-0.19189500	-0.02783200	-0.62402300	0.44946300	0.21704100	-0.72729500	0.20068400	0.31835900	-0.69482400	-0.38061500	-0.00439500	-0.69433600	-0.13623000	-0.38378900
3666	36.65000000	-0.91162100	-0.19213900	-0.00903300	-0.67919900	0.26879900	-0.57324200	-0.22729500	-0.82836900	-0.06494100	-0.83789100	-0.18774400	-0.02563500	-0.62451200	0.45825200	0.21435500	-0.72534200	0.21142600	0.31152300	-0.70336900	-0.37036100	-0.03588900	-0.69458000	-0.12963900	-0.38159200
